<?xml version="1.0" encoding="UTF-8"?>
<svg version="1.1" xmlns="http://www.w3.org/2000/svg" width="72" height="72">
<path d="M0 0 C3.96 0 7.92 0 12 0 C12 1.32 12 2.64 12 4 C13.32 4 14.64 4 16 4 C16 2.68 16 1.36 16 0 C19.96 0 23.92 0 28 0 C28 2.64 28 5.28 28 8 C26.68 8 25.36 8 24 8 C24 9.32 24 10.64 24 12 C25.32 12 26.64 12 28 12 C28 14.64 28 17.28 28 20 C26.68 20 25.36 20 24 20 C24 23.96 24 27.92 24 32 C22.68 32 21.36 32 20 32 C20 33.32 20 34.64 20 36 C18.68 36 17.36 36 16 36 C16 37.32 16 38.64 16 40 C13.36 40 10.72 40 8 40 C8 41.32 8 42.64 8 44 C6.68 44 5.36 44 4 44 C4 45.32 4 46.64 4 48 C9.28 48 14.56 48 20 48 C20 51.96 20 55.92 20 60 C18.68 60 17.36 60 16 60 C16 61.32 16 62.64 16 64 C10.72 64 5.44 64 0 64 C0 62.68 0 61.36 0 60 C-1.32 60 -2.64 60 -4 60 C-4 58.68 -4 57.36 -4 56 C-5.32 56 -6.64 56 -8 56 C-8 57.32 -8 58.64 -8 60 C-14.6 60 -21.2 60 -28 60 C-28 57.36 -28 54.72 -28 52 C-26.68 52 -25.36 52 -24 52 C-24 50.68 -24 49.36 -24 48 C-20.04 48 -16.08 48 -12 48 C-12 46.68 -12 45.36 -12 44 C-14.64 44 -17.28 44 -20 44 C-20 42.68 -20 41.36 -20 40 C-21.32 40 -22.64 40 -24 40 C-24 38.68 -24 37.36 -24 36 C-25.32 36 -26.64 36 -28 36 C-28 29.4 -28 22.8 -28 16 C-24.04 16 -20.08 16 -16 16 C-16 17.32 -16 18.64 -16 20 C-14.68 20 -13.36 20 -12 20 C-12 21.32 -12 22.64 -12 24 C-10.68 24 -9.36 24 -8 24 C-8 29.28 -8 34.56 -8 40 C-6.68 40 -5.36 40 -4 40 C-4 32.08 -4 24.16 -4 16 C-2.68 16 -1.36 16 0 16 C0 14.68 0 13.36 0 12 C1.32 12 2.64 12 4 12 C4 10.68 4 9.36 4 8 C2.68 8 1.36 8 0 8 C0 5.36 0 2.72 0 0 Z M0 48 C0 49.32 0 50.64 0 52 C1.32 52 2.64 52 4 52 C4 50.68 4 49.36 4 48 C2.68 48 1.36 48 0 48 Z " fill="#0D1B2C" transform="translate(36,4)"/>
<path d="M0 0 C3.96 0 7.92 0 12 0 C12 1.32 12 2.64 12 4 C13.32 4 14.64 4 16 4 C16 2.68 16 1.36 16 0 C19.96 0 23.92 0 28 0 C28 2.64 28 5.28 28 8 C26.68 8 25.36 8 24 8 C24 9.32 24 10.64 24 12 C25.32 12 26.64 12 28 12 C28 14.64 28 17.28 28 20 C26.68 20 25.36 20 24 20 C24 23.96 24 27.92 24 32 C22.68 32 21.36 32 20 32 C20 33.32 20 34.64 20 36 C14.72 36 9.44 36 4 36 C4 34.68 4 33.36 4 32 C2.68 32 1.36 32 0 32 C0 25.4 0 18.8 0 12 C1.32 12 2.64 12 4 12 C4 10.68 4 9.36 4 8 C2.68 8 1.36 8 0 8 C0 5.36 0 2.72 0 0 Z " fill="#542225" transform="translate(36,4)"/>
<path d="M0 0 C3.96 0 7.92 0 12 0 C12 1.32 12 2.64 12 4 C13.32 4 14.64 4 16 4 C16 10.6 16 17.2 16 24 C12.04 24 8.08 24 4 24 C4 22.68 4 21.36 4 20 C2.68 20 1.36 20 0 20 C0 13.4 0 6.8 0 0 Z " fill="#26708A" transform="translate(8,20)"/>
<path d="M0 0 C3.96 0 7.92 0 12 0 C12 1.32 12 2.64 12 4 C14.64 4 17.28 4 20 4 C20 9.28 20 14.56 20 20 C14.72 20 9.44 20 4 20 C4 18.68 4 17.36 4 16 C2.68 16 1.36 16 0 16 C0 10.72 0 5.44 0 0 Z " fill="#C15681" transform="translate(36,20)"/>
<path d="M0 0 C5.28 0 10.56 0 16 0 C16 3.96 16 7.92 16 12 C14.68 12 13.36 12 12 12 C12 13.32 12 14.64 12 16 C6.72 16 1.44 16 -4 16 C-4 13.36 -4 10.72 -4 8 C-2.68 8 -1.36 8 0 8 C0 5.36 0 2.72 0 0 Z " fill="#2D88A2" transform="translate(40,52)"/>
<path d="M0 0 C3.96 0 7.92 0 12 0 C12 3.96 12 7.92 12 12 C10.68 12 9.36 12 8 12 C8 10.68 8 9.36 8 8 C6.68 8 5.36 8 4 8 C4 9.32 4 10.64 4 12 C2.68 12 1.36 12 0 12 C0 8.04 0 4.08 0 0 Z " fill="#2A8595" transform="translate(12,24)"/>
<path d="M0 0 C1.32 0 2.64 0 4 0 C4 2.64 4 5.28 4 8 C2.68 8 1.36 8 0 8 C0 11.96 0 15.92 0 20 C-1.32 20 -2.64 20 -4 20 C-4 16.04 -4 12.08 -4 8 C-6.64 8 -9.28 8 -12 8 C-12 6.68 -12 5.36 -12 4 C-8.04 4 -4.08 4 0 4 C0 2.68 0 1.36 0 0 Z " fill="#491715" transform="translate(60,16)"/>
<path d="M0 0 C1.32 0 2.64 0 4 0 C4 1.32 4 2.64 4 4 C7.96 4 11.92 4 16 4 C16 5.32 16 6.64 16 8 C13.36 8 10.72 8 8 8 C8 9.32 8 10.64 8 12 C5.36 12 2.72 12 0 12 C0 8.04 0 4.08 0 0 Z " fill="#6F1D45" transform="translate(36,36)"/>
<path d="M0 0 C3.96 0 7.92 0 12 0 C12 1.32 12 2.64 12 4 C9.36 4 6.72 4 4 4 C4 9.28 4 14.56 4 20 C2.68 20 1.36 20 0 20 C0 13.4 0 6.8 0 0 Z " fill="#000000" transform="translate(8,20)"/>
<path d="M0 0 C1.32 0 2.64 0 4 0 C4 1.32 4 2.64 4 4 C9.28 4 14.56 4 20 4 C20 5.32 20 6.64 20 8 C13.4 8 6.8 8 0 8 C0 5.36 0 2.72 0 0 Z " fill="#000000" transform="translate(8,56)"/>
<path d="M0 0 C5.28 0 10.56 0 16 0 C16 3.96 16 7.92 16 12 C14.68 12 13.36 12 12 12 C12 9.36 12 6.72 12 4 C8.04 4 4.08 4 0 4 C0 2.68 0 1.36 0 0 Z " fill="#000000" transform="translate(40,52)"/>
<path d="M0 0 C2.64 0 5.28 0 8 0 C8 2.64 8 5.28 8 8 C9.32 8 10.64 8 12 8 C12 9.32 12 10.64 12 12 C9.36 12 6.72 12 4 12 C4 10.68 4 9.36 4 8 C2.68 8 1.36 8 0 8 C0 5.36 0 2.72 0 0 Z " fill="#F59CBF" transform="translate(36,20)"/>
<path d="M0 0 C1.32 0 2.64 0 4 0 C4 7.92 4 15.84 4 24 C2.68 24 1.36 24 0 24 C0 16.08 0 8.16 0 0 Z " fill="#000000" transform="translate(32,20)"/>
<path d="M0 0 C5.28 0 10.56 0 16 0 C16 1.32 16 2.64 16 4 C10.72 4 5.44 4 0 4 C0 2.68 0 1.36 0 0 Z " fill="#000000" transform="translate(36,64)"/>
<path d="M0 0 C5.28 0 10.56 0 16 0 C16 1.32 16 2.64 16 4 C10.72 4 5.44 4 0 4 C0 2.68 0 1.36 0 0 Z " fill="#256387" transform="translate(12,56)"/>
<path d="M0 0 C1.32 0 2.64 0 4 0 C4 5.28 4 10.56 4 16 C2.68 16 1.36 16 0 16 C0 10.72 0 5.44 0 0 Z " fill="#000000" transform="translate(24,28)"/>
<path d="M0 0 C1.32 0 2.64 0 4 0 C4 1.32 4 2.64 4 4 C6.64 4 9.28 4 12 4 C12 5.32 12 6.64 12 8 C8.04 8 4.08 8 0 8 C0 5.36 0 2.72 0 0 Z " fill="#A83A71" transform="translate(44,20)"/>
<path d="M0 0 C3.96 0 7.92 0 12 0 C12 2.64 12 5.28 12 8 C10.68 8 9.36 8 8 8 C8 6.68 8 5.36 8 4 C5.36 4 2.72 4 0 4 C0 2.68 0 1.36 0 0 Z " fill="#000000" transform="translate(52,4)"/>
<path d="M0 0 C3.96 0 7.92 0 12 0 C12 1.32 12 2.64 12 4 C9.36 4 6.72 4 4 4 C4 5.32 4 6.64 4 8 C2.68 8 1.36 8 0 8 C0 5.36 0 2.72 0 0 Z " fill="#000000" transform="translate(36,4)"/>
<path d="M0 0 C3.96 0 7.92 0 12 0 C12 1.32 12 2.64 12 4 C8.04 4 4.08 4 0 4 C0 2.68 0 1.36 0 0 Z " fill="#000000" transform="translate(12,52)"/>
<path d="M0 0 C1.32 0 2.64 0 4 0 C4 3.96 4 7.92 4 12 C2.68 12 1.36 12 0 12 C0 8.04 0 4.08 0 0 Z " fill="#000000" transform="translate(56,24)"/>
<path d="M0 0 C2.64 0 5.28 0 8 0 C8 1.32 8 2.64 8 4 C6.68 4 5.36 4 4 4 C4 5.32 4 6.64 4 8 C2.68 8 1.36 8 0 8 C0 5.36 0 2.72 0 0 Z " fill="#EA79A4" transform="translate(36,20)"/>
<path d="M0 0 C3.96 0 7.92 0 12 0 C12 1.32 12 2.64 12 4 C8.04 4 4.08 4 0 4 C0 2.68 0 1.36 0 0 Z " fill="#873A40" transform="translate(48,16)"/>
<path d="M0 0 C2.64 0 5.28 0 8 0 C8 1.32 8 2.64 8 4 C5.36 4 2.72 4 0 4 C0 2.68 0 1.36 0 0 Z " fill="#000000" transform="translate(44,40)"/>
<path d="M0 0 C1.32 0 2.64 0 4 0 C4 2.64 4 5.28 4 8 C2.68 8 1.36 8 0 8 C0 5.36 0 2.72 0 0 Z " fill="#41C8CC" transform="translate(12,28)"/>
<path d="M0 0 C1.32 0 2.64 0 4 0 C4 2.64 4 5.28 4 8 C2.68 8 1.36 8 0 8 C0 5.36 0 2.72 0 0 Z " fill="#BF4D80" transform="translate(44,20)"/>
<path d="M0 0 C1.32 0 2.64 0 4 0 C4 2.64 4 5.28 4 8 C2.68 8 1.36 8 0 8 C0 5.36 0 2.72 0 0 Z " fill="#000000" transform="translate(60,16)"/>
<path d="M0 0 C2.64 0 5.28 0 8 0 C8 1.32 8 2.64 8 4 C5.36 4 2.72 4 0 4 C0 2.68 0 1.36 0 0 Z " fill="#541D38" transform="translate(36,16)"/>
<path d="M0 0 C1.32 0 2.64 0 4 0 C4 2.64 4 5.28 4 8 C2.68 8 1.36 8 0 8 C0 5.36 0 2.72 0 0 Z " fill="#240B0A" transform="translate(48,8)"/>
<path d="M0 0 C2.64 0 5.28 0 8 0 C8 1.32 8 2.64 8 4 C5.36 4 2.72 4 0 4 C0 2.68 0 1.36 0 0 Z " fill="#934348" transform="translate(40,8)"/>
</svg>
